<?xml version="1.0" encoding="utf-8"?>
<!-- Generator: Adobe Illustrator 14.0.0, SVG Export Plug-In . SVG Version: 6.00 Build 43363)  -->
<!DOCTYPE svg PUBLIC "-//W3C//DTD SVG 1.1//EN" "http://www.w3.org/Graphics/SVG/1.1/DTD/svg11.dtd">
<svg version="1.1" id="Layer_1" xmlns="http://www.w3.org/2000/svg" xmlns:xlink="http://www.w3.org/1999/xlink" x="0px" y="0px"
	 width="800px" height="800px" viewBox="0 0 800 800" enable-background="new 0 0 800 800" xml:space="preserve">
<g>
	<path fill="#D6D6D6" d="M299.614,673.799l-13.638,1.801l-13.139-5.435l30.255-4.776L299.614,673.799z M294.374,686.469
		l-3.509,8.482l-18.028-24.786l13.139,5.435L294.374,686.469z"/>
	<path fill="#D6D6D6" d="M320.132,714.859c-3.835-0.979-6.974-2.688-9.415-5.126c-2.441-2.438-4.064-5.398-4.867-8.884
		c-0.804-3.484-0.68-7.282,0.371-11.396l3.858-15.102c1.057-4.138,2.773-7.542,5.149-10.215c2.376-2.672,5.22-4.492,8.532-5.46
		c3.311-0.969,6.884-0.963,10.72,0.018c3.179,0.812,5.913,2.235,8.201,4.271c2.289,2.037,4.01,4.505,5.163,7.407
		c1.154,2.902,1.627,6.073,1.42,9.514l-7.91-2.02c-0.029-1.889-0.435-3.64-1.219-5.251c-0.785-1.611-1.84-2.976-3.167-4.095
		c-1.327-1.117-2.798-1.885-4.413-2.297c-3.381-0.864-6.404-0.365-9.069,1.493c-2.666,1.859-4.498,4.745-5.498,8.655l-3.857,15.102
		c-1,3.911-0.774,7.313,0.677,10.212c1.45,2.896,3.866,4.777,7.248,5.641c2.396,0.612,4.848,0.433,7.354-0.54
		c2.506-0.973,4.489-2.791,5.949-5.456l7.91,2.021c-1.469,3.119-3.411,5.674-5.828,7.663c-2.417,1.99-5.111,3.331-8.083,4.022
		C326.387,715.731,323.312,715.672,320.132,714.859z"/>
	<path fill="#D6D6D6" d="M372.252,723.59c-3.996-0.341-7.413-1.501-10.249-3.481c-2.837-1.979-4.945-4.61-6.325-7.891
		c-1.38-3.28-1.891-7.009-1.534-11.187l1.368-16.035c0.359-4.204,1.495-7.798,3.41-10.785c1.915-2.984,4.437-5.214,7.568-6.686
		c3.131-1.47,6.695-2.036,10.691-1.694c3.995,0.342,7.412,1.502,10.249,3.482c2.835,1.979,4.944,4.604,6.327,7.871
		c1.379,3.268,1.892,7.002,1.532,11.206l-1.369,16.035c-0.356,4.178-1.493,7.766-3.408,10.766c-1.917,2.998-4.44,5.233-7.57,6.703
		C379.812,723.367,376.248,723.932,372.252,723.59z M372.92,715.767c3.554,0.304,6.502-0.622,8.842-2.773
		c2.339-2.153,3.673-5.149,4.001-8.989l1.415-16.58c0.331-3.865-0.476-7.052-2.418-9.558c-1.942-2.504-4.691-3.909-8.247-4.211
		c-3.528-0.302-6.469,0.617-8.821,2.755c-2.352,2.139-3.692,5.142-4.022,9.008l-1.415,16.579c-0.328,3.842,0.485,7.021,2.44,9.54
		C366.649,714.056,369.391,715.466,372.92,715.767z"/>
	<path fill="#D6D6D6" d="M409.264,724.645l-4.913-56.585l7.939-0.689l4.912,56.585L409.264,724.645z M414.633,724.179l-0.656-7.55
		l12.804-1.112c4.178-0.362,7.32-1.726,9.428-4.092c2.108-2.364,2.991-5.52,2.648-9.463l-1.445-16.657
		c-0.343-3.943-1.756-6.898-4.24-8.865s-5.814-2.77-9.992-2.406l-12.803,1.11l-0.654-7.55l12.569-1.091
		c6.85-0.595,12.302,0.716,16.357,3.932c4.058,3.216,6.365,8.042,6.923,14.476l1.392,16.034c0.372,4.279-0.153,8.006-1.578,11.174
		c-1.425,3.169-3.676,5.69-6.754,7.565c-3.079,1.875-6.9,3.011-11.467,3.407L414.633,724.179z"/>
	<path fill="#D6D6D6" d="M465.35,718.063l-14.296-54.968l7.711-2.007l14.297,54.969L465.35,718.063z M456.703,669.455l-1.907-7.334
		l31.566-8.211l1.908,7.335L456.703,669.455z M462.947,693.461l-1.908-7.334l27.409-7.128l1.907,7.333L462.947,693.461z
		 M469.093,717.088l-1.908-7.332l31.567-8.211l1.907,7.335L469.093,717.088z"/>
	<path fill="#D6D6D6" d="M500.919,673.593l-3.496-8.404l30.265,4.714l-13.128,5.461L500.919,673.593z M506.186,686.252l8.374-10.889
		l13.128-5.461l-17.976,24.824L506.186,686.252z"/>
</g>
</svg>
