<?xml version="1.0" encoding="utf-8"?>
<!-- Generator: Adobe Illustrator 14.0.0, SVG Export Plug-In . SVG Version: 6.00 Build 43363)  -->
<!DOCTYPE svg PUBLIC "-//W3C//DTD SVG 1.1//EN" "http://www.w3.org/Graphics/SVG/1.1/DTD/svg11.dtd">
<svg version="1.1" id="Layer_1" xmlns="http://www.w3.org/2000/svg" xmlns:xlink="http://www.w3.org/1999/xlink" x="0px" y="0px"
	 width="800px" height="800px" viewBox="0 0 800 800" enable-background="new 0 0 800 800" xml:space="preserve">
<g>
	<path fill="#E5E3E3" d="M259.993,117.365c-0.616-1.186-1.227-2.014-1.829-2.484c-0.604-0.468-1.198-0.782-1.786-0.94
		c-0.546-0.058-1.078-0.051-1.597,0.023c-0.519,0.075-1.393,0.371-2.62,0.888l-0.493-0.139l-0.781-1.233l0.023-0.357
		c0.343-0.145,0.856-0.303,1.536-0.475c0.68-0.17,1.389-0.412,2.126-0.723c0.737-0.312,1.462-0.617,2.175-0.918
		c0.712-0.3,1.338-0.564,1.88-0.792l4.201-1.773c0.638-0.269,1.437-0.606,2.396-1.01c0.958-0.404,1.94-0.819,2.948-1.243
		c1.007-0.425,1.99-0.84,2.948-1.244c0.958-0.405,1.732-0.731,2.322-0.979c3.833-1.617,7.534-2.412,11.105-2.387
		c3.57,0.025,6.854,0.707,9.849,2.044c2.995,1.337,5.667,3.244,8.014,5.721c2.348,2.478,4.216,5.361,5.602,8.648
		c1.366,3.238,2.137,6.541,2.312,9.905c0.175,3.366-0.298,6.601-1.42,9.703c-1.123,3.103-2.951,5.97-5.488,8.601
		c-2.537,2.63-5.846,4.806-9.924,6.526c-0.442,0.188-1.105,0.467-1.99,0.84s-1.818,0.767-2.802,1.182
		c-0.983,0.415-1.929,0.813-2.837,1.197c-0.91,0.383-1.635,0.689-2.175,0.917l-3.906,1.648c-0.345,0.145-0.91,0.383-1.695,0.715
		c-0.787,0.332-1.598,0.673-2.433,1.026c-0.836,0.353-1.647,0.694-2.433,1.026c-0.786,0.332-1.352,0.571-1.695,0.715l-0.179-0.011
		l-0.339-1.42l0.244-0.45c0.591-0.249,1.263-0.576,2.018-0.981c0.755-0.405,1.292-0.849,1.61-1.33
		c0.268-0.46,0.439-1.083,0.514-1.867c0.075-0.783-0.083-1.845-0.475-3.186c-0.146-0.343-0.305-0.753-0.477-1.231
		c-0.173-0.477-0.392-1.064-0.657-1.764c-0.266-0.698-0.605-1.537-1.021-2.521c-0.414-0.982-0.933-2.211-1.554-3.686l-6.313-14.963
		c-0.207-0.491-0.523-1.24-0.948-2.249c-0.426-1.006-0.876-2.075-1.354-3.206c-0.476-1.129-0.955-2.23-1.436-3.301
		C260.68,118.755,260.291,117.934,259.993,117.365z M292.421,148.749c2.948-1.244,5.324-2.883,7.13-4.918
		c1.804-2.034,3.092-4.3,3.861-6.796c0.771-2.495,1.033-5.167,0.787-8.016c-0.247-2.848-0.981-5.721-2.205-8.621
		c-1.243-2.948-2.812-5.5-4.704-7.653c-1.893-2.153-4.021-3.802-6.385-4.947c-2.364-1.143-4.919-1.745-7.663-1.803
		c-2.746-0.058-5.592,0.535-8.54,1.779l-10.172,4.292c0.502,1.467,0.943,2.684,1.323,3.652c0.379,0.969,0.752,1.956,1.118,2.958
		c0.365,1.004,0.792,2.083,1.279,3.238c0.487,1.155,1.104,2.616,1.85,4.386l5.722,13.562c1.243,2.949,2.224,5.242,2.944,6.876
		c0.718,1.637,1.303,2.852,1.754,3.645c0.688,1.216,1.343,1.879,1.969,1.992c0.626,0.113,1.577-0.102,2.856-0.641L292.421,148.749z"
		/>
	<path fill="#E5E3E3" d="M331.732,85.323c0.675-0.154,1.702-0.388,3.081-0.702c1.377-0.313,2.77-0.63,4.174-0.95
		c1.403-0.32,2.664-0.606,3.782-0.861c1.118-0.254,1.807-0.411,2.067-0.471l0.551,0.614l1.619,8.562l-1.949,0.444l-0.384-0.245
		c-0.381-1.188-0.739-2.103-1.077-2.747c-0.339-0.643-0.972-1.025-1.901-1.146c-0.931-0.121-2.253,0.014-3.969,0.405
		c-1.717,0.391-4.135,0.94-7.255,1.651l-7.488,1.705l0.527,3.04c0.135,0.833,0.253,1.536,0.355,2.106
		c0.103,0.572,0.234,1.271,0.396,2.098c0.159,0.828,0.373,1.819,0.636,2.975c0.263,1.155,0.897,3.941,1.901,8.357
		c1.562-0.355,3.121-0.71,4.682-1.065c1.56-0.355,2.976-0.677,4.251-0.967c1.273-0.291,2.331-0.627,3.174-1.014
		c0.842-0.385,1.377-0.798,1.605-1.237c0.32-0.515,0.589-1.019,0.805-1.511c0.216-0.493,0.234-1.134,0.055-1.924l0.303-0.473
		l1.291-0.455l0.347,0.083c0.167,1.216,0.313,2.274,0.436,3.175c0.123,0.899,0.313,1.919,0.573,3.06
		c0.284,1.246,0.586,2.391,0.905,3.436c0.32,1.046,0.673,2.18,1.062,3.4l-0.276,0.228l-1.44,0.164l-0.365-0.163
		c-0.192-0.845-0.525-1.588-0.999-2.23c-0.475-0.642-0.975-1.154-1.498-1.535c-0.385-0.246-1.037-0.347-1.957-0.304
		c-0.921,0.042-2.004,0.206-3.252,0.49s-2.652,0.604-4.212,0.958c-1.561,0.355-3.147,0.717-4.759,1.083l1.716,7.538
		c0.424,1.865,0.77,3.381,1.035,4.546c0.265,1.165,0.513,2.198,0.746,3.099c0.231,0.901,0.46,1.723,0.683,2.461
		c0.223,0.739,0.498,1.589,0.826,2.549c0.226,0.989,0.856,1.364,1.897,1.127l6.631-1.509c3.12-0.71,5.563-1.334,7.327-1.873
		c1.765-0.538,3.067-1.122,3.908-1.751c0.842-0.628,1.359-1.417,1.555-2.364c0.195-0.947,0.313-2.164,0.359-3.651l0.24-0.383
		l2.028-0.461l0.834,10.154l-0.448,0.917c-0.26,0.059-0.857,0.195-1.794,0.408c-0.936,0.213-1.989,0.453-3.158,0.719
		c-1.171,0.266-2.341,0.532-3.511,0.799c-1.17,0.266-2.094,0.477-2.77,0.63l-15.757,3.586c-0.365,0.083-0.963,0.22-1.794,0.409
		c-0.833,0.189-1.69,0.384-2.574,0.586c-0.885,0.202-1.743,0.397-2.574,0.586c-0.833,0.189-1.431,0.326-1.794,0.408l-0.174-0.042
		l-0.086-1.458l0.319-0.401c0.831-0.189,1.603-0.405,2.313-0.65c0.71-0.243,1.258-0.6,1.643-1.071
		c0.334-0.458,0.63-1.017,0.89-1.679c0.261-0.66,0.275-1.731,0.049-3.211c-0.082-0.363-0.168-0.795-0.254-1.296
		c-0.087-0.499-0.2-1.116-0.339-1.851c-0.14-0.733-0.328-1.62-0.564-2.661c-0.237-1.04-0.533-2.34-0.888-3.9l-3.604-15.835
		c-0.414-1.82-0.763-3.354-1.048-4.602c-0.283-1.249-0.526-2.313-0.727-3.198c-0.202-0.884-0.387-1.635-0.555-2.253
		c-0.169-0.618-0.35-1.233-0.543-1.846c-0.425-1.38-0.898-2.325-1.425-2.834c-0.526-0.508-1.038-0.898-1.537-1.167
		c-0.551-0.257-1.2-0.343-1.945-0.255c-0.746,0.088-1.535,0.226-2.367,0.416l-0.461-0.223l-0.554-1.351l0.139-0.114
		c0.363-0.082,0.962-0.218,1.794-0.408c0.831-0.189,1.729-0.394,2.691-0.613c0.962-0.219,1.897-0.432,2.808-0.64
		c0.91-0.206,1.65-0.375,2.224-0.505L331.732,85.323z"/>
	<path fill="#E5E3E3" d="M366.312,91.611c0.11,1.49,0.468,2.707,1.072,3.65c0.604,0.946,1.479,1.75,2.625,2.414
		c1.146,0.664,2.579,1.241,4.3,1.727c1.721,0.488,3.75,0.994,6.089,1.515c2.014,0.493,4.009,1.067,5.982,1.723
		c1.974,0.657,3.766,1.554,5.374,2.691c1.607,1.138,2.929,2.563,3.966,4.278c1.036,1.716,1.649,3.849,1.838,6.401
		c0.201,2.713-0.161,5.054-1.085,7.02c-0.925,1.967-2.221,3.601-3.889,4.9c-1.668,1.3-3.64,2.302-5.914,3.004
		s-4.688,1.149-7.241,1.338c-3.299,0.245-6.33,0.094-9.098-0.45s-5.284-1.293-7.547-2.249l-0.396-1.014l0.725-8.637l1.994-0.147
		l0.435,0.449c0.506,3.225,1.985,5.508,4.438,6.851c2.452,1.342,5.699,1.864,9.742,1.565c4.148-0.307,7.202-1.482,9.164-3.526
		c1.961-2.042,2.829-4.582,2.605-7.613c-0.138-1.862-0.652-3.388-1.542-4.579c-0.891-1.19-2.021-2.177-3.388-2.958
		c-1.369-0.781-2.911-1.402-4.63-1.864c-1.72-0.461-3.451-0.92-5.196-1.38c-2.179-0.533-4.217-1.144-6.112-1.834
		c-1.896-0.688-3.563-1.541-5.002-2.558c-1.439-1.016-2.602-2.266-3.486-3.753c-0.886-1.485-1.407-3.291-1.564-5.419
		c-0.185-2.499,0.097-4.646,0.847-6.439s1.854-3.292,3.317-4.498c1.461-1.204,3.198-2.122,5.211-2.752
		c2.011-0.629,4.215-1.033,6.608-1.21c2.872-0.212,5.604-0.147,8.197,0.195c2.593,0.344,4.713,0.828,6.364,1.454l0.384,0.854
		l-0.591,7.184l-2.233,0.165l-0.429-0.37c-0.21-1.374-0.744-2.458-1.604-3.25c-0.861-0.791-1.855-1.386-2.98-1.785
		c-1.126-0.398-2.319-0.63-3.58-0.697c-1.264-0.067-2.373-0.065-3.329,0.005c-3.458,0.256-6.115,1.215-7.97,2.876
		C366.926,86.552,366.103,88.793,366.312,91.611z"/>
	<path fill="#E5E3E3" d="M424.726,78.876l-0.305,1.428l-0.334,0.305c-0.853-0.039-1.668-0.035-2.443,0.01
		c-0.775,0.045-1.412,0.244-1.908,0.594c-0.443,0.355-0.865,0.816-1.264,1.385c-0.4,0.57-0.687,1.598-0.859,3.084
		c-0.088,0.744-0.159,1.434-0.213,2.072c-0.057,0.638-0.116,1.384-0.182,2.234c-0.066,0.852-0.125,1.89-0.18,3.116
		c-0.056,1.226-0.127,2.797-0.214,4.715l-0.662,14.705c-0.086,1.918-0.156,3.476-0.211,4.675c-0.054,1.199-0.086,2.198-0.095,2.999
		c-0.01,0.8-0.013,1.481-0.011,2.042c0,0.561,0.014,1.162,0.038,1.804c0.039,1.497,0.231,2.546,0.579,3.149
		c0.346,0.604,0.724,1.102,1.135,1.493c0.461,0.395,1.077,0.649,1.847,0.763c0.769,0.115,1.58,0.192,2.432,0.23l0.306,0.334
		l0.174,1.449l-0.163,0.073c-0.373-0.017-0.985-0.044-1.838-0.083c-0.853-0.038-1.731-0.078-2.637-0.119
		c-0.907-0.041-1.786-0.08-2.637-0.118c-0.854-0.039-1.467-0.067-1.839-0.083l-1.519-0.068c-0.373-0.017-0.986-0.044-1.838-0.083
		c-0.853-0.039-1.732-0.078-2.638-0.119c-0.906-0.041-1.785-0.081-2.637-0.119c-0.854-0.038-1.466-0.066-1.839-0.083l-0.156-0.087
		l0.305-1.428l0.415-0.302c0.851,0.039,1.652,0.035,2.401-0.011c0.75-0.047,1.373-0.245,1.87-0.597
		c0.442-0.354,0.878-0.814,1.303-1.383c0.427-0.568,0.726-1.595,0.9-3.083c0.016-0.372,0.049-0.811,0.099-1.317
		c0.049-0.504,0.104-1.128,0.165-1.874c0.06-0.745,0.114-1.649,0.162-2.715c0.049-1.066,0.108-2.397,0.181-3.997l0.73-16.223
		c0.084-1.865,0.155-3.437,0.213-4.715c0.057-1.279,0.093-2.371,0.107-3.279c0.013-0.907,0.021-1.681,0.024-2.321
		c0.001-0.64-0.011-1.282-0.034-1.923c-0.045-1.39-0.239-2.413-0.583-3.07c-0.344-0.656-0.72-1.18-1.129-1.572
		c-0.464-0.394-1.066-0.649-1.809-0.763s-1.541-0.189-2.392-0.228l-0.385-0.338l-0.176-1.45l0.164-0.072
		c0.371,0.017,0.985,0.044,1.838,0.083c0.852,0.038,1.73,0.078,2.637,0.119s1.785,0.081,2.638,0.119
		c0.853,0.038,1.464,0.065,1.838,0.083l1.519,0.068c0.372,0.017,0.986,0.044,1.839,0.083c0.851,0.039,1.73,0.078,2.637,0.119
		c0.906,0.041,1.784,0.081,2.638,0.119c0.852,0.038,1.465,0.066,1.838,0.083L424.726,78.876z"/>
	<path fill="#E5E3E3" d="M469.876,136.889c-2.665,0.316-5.423,0.492-8.278,0.528c-2.854,0.036-5.776-0.225-8.765-0.783
		c-4.562-0.853-8.404-2.289-11.526-4.307c-3.122-2.019-5.573-4.44-7.351-7.265c-1.779-2.825-2.919-5.936-3.423-9.335
		c-0.505-3.399-0.425-6.879,0.24-10.438c0.704-3.769,1.95-7.165,3.735-10.191c1.787-3.026,4.057-5.526,6.814-7.504
		c2.756-1.977,5.968-3.341,9.636-4.091c3.666-0.751,7.754-0.706,12.264,0.137c0.943,0.176,2.084,0.39,3.42,0.64
		c1.337,0.25,2.72,0.619,4.147,1.105c1.428,0.486,2.869,1.044,4.327,1.675c1.454,0.63,2.813,1.338,4.078,2.124l0.023,0.747
		l-2.783,7.49l-2.202-0.411l-0.271-0.295c0.025-2.165-0.891-4.019-2.745-5.559c-1.856-1.54-4.906-2.707-9.153-3.5
		c-5.925-1.107-10.663-0.722-14.214,1.155c-1.443,0.758-2.737,1.733-3.882,2.924c-1.146,1.192-2.172,2.541-3.076,4.048
		c-0.906,1.507-1.672,3.135-2.297,4.884c-0.626,1.749-1.104,3.51-1.435,5.286c-0.655,3.501-0.729,6.73-0.224,9.69
		c0.505,2.96,1.47,5.56,2.896,7.8c1.426,2.24,3.275,4.1,5.55,5.58c2.273,1.479,4.852,2.487,7.734,3.026
		c0.893,0.167,1.9,0.355,3.028,0.565c1.127,0.21,2.242,0.338,3.348,0.38c1.104,0.043,2.095,0.038,2.974-0.016
		c0.877-0.054,1.495-0.157,1.849-0.31c0.468-0.184,0.781-0.698,0.938-1.541c0.068-0.369,0.162-0.87,0.28-1.501
		s0.243-1.304,0.377-2.015c0.133-0.712,0.253-1.425,0.359-2.142c0.105-0.715,0.183-1.342,0.23-1.88
		c0.149-1.389,0.068-2.481-0.243-3.275c-0.313-0.795-0.607-1.327-0.882-1.597c-0.403-0.457-1.069-0.812-1.999-1.067
		c-0.929-0.255-1.813-0.462-2.651-0.619l-0.333-0.388l0.086-1.774l0.173-0.05c0.366,0.069,0.956,0.179,1.769,0.331
		c0.813,0.151,1.651,0.309,2.518,0.47c0.864,0.162,1.702,0.318,2.516,0.471c0.813,0.151,1.402,0.262,1.77,0.33l2.359,0.441
		c0.366,0.069,0.867,0.149,1.501,0.24c0.634,0.092,1.294,0.188,1.98,0.289c0.686,0.102,1.348,0.198,1.981,0.289
		s1.134,0.17,1.501,0.239l0.099,0.344l-0.51,1.857l-0.451,0.241c-1.521-0.285-2.666-0.039-3.434,0.735
		c-0.77,0.775-1.367,2.011-1.792,3.71c-0.349,1.277-0.673,2.653-0.976,4.126s-0.521,2.573-0.656,3.299
		c-0.146,0.777-0.291,1.623-0.433,2.534c-0.145,0.913-0.188,1.509-0.132,1.788L469.876,136.889z"/>
	<path fill="#E5E3E3" d="M544.792,111.244l-0.675,1.248l-0.487,0.141c-0.793-0.319-1.563-0.585-2.309-0.8
		c-0.748-0.214-1.39-0.227-1.924-0.041c-0.537,0.188-1.075,0.49-1.615,0.905c-0.541,0.415-1.14,1.296-1.796,2.642
		c-0.329,0.673-0.626,1.303-0.889,1.887c-0.264,0.584-0.567,1.268-0.91,2.05c-0.345,0.782-0.744,1.743-1.203,2.882
		c-0.458,1.139-1.047,2.6-1.763,4.381l-5.259,13.073c-1.116,2.773-2.021,5.055-2.713,6.848c-0.693,1.794-1.281,3.326-1.763,4.598
		c-0.484,1.273-0.888,2.419-1.212,3.439c-0.324,1.02-0.677,2.145-1.055,3.373l-0.683-0.017l-4.603-1.851l-0.382-1.193
		l-10.447-50.333c-0.2,0.495-0.412,0.985-0.635,1.469c-0.226,0.484-0.48,1.087-0.77,1.803c-0.288,0.718-0.623,1.547-1,2.486
		c-0.378,0.94-0.846,2.104-1.403,3.489l-5.495,13.655c-0.238,0.594-0.552,1.374-0.94,2.338c-0.387,0.965-0.779,1.971-1.172,3.021
		c-0.394,1.049-0.772,2.061-1.135,3.036c-0.364,0.975-0.641,1.769-0.83,2.382c-0.397,1.277-0.563,2.289-0.488,3.037
		c0.072,0.749,0.285,1.396,0.642,1.94c0.277,0.455,0.716,0.863,1.32,1.22c0.603,0.358,1.398,0.736,2.39,1.134l0.252,0.447
		l-0.315,1.425l-0.179,0.014c-0.346-0.139-0.878-0.354-1.595-0.642c-0.719-0.289-1.473-0.593-2.264-0.91
		c-0.792-0.319-1.547-0.623-2.264-0.911c-0.719-0.289-1.25-0.503-1.596-0.642l-1.411-0.567c-0.346-0.139-0.916-0.369-1.706-0.687
		c-0.792-0.318-1.609-0.647-2.449-0.985c-0.842-0.339-1.658-0.667-2.449-0.986c-0.792-0.318-1.361-0.547-1.707-0.687l-0.119-0.134
		l0.76-1.247l0.491-0.147c0.891,0.358,1.659,0.625,2.309,0.8c0.647,0.174,1.289,0.188,1.924,0.041
		c0.444-0.109,0.968-0.373,1.569-0.793c0.6-0.42,1.264-1.318,1.989-2.694c0.188-0.327,0.39-0.72,0.605-1.181
		c0.213-0.461,0.46-1.037,0.737-1.73c0.281-0.694,0.619-1.535,1.018-2.526c0.398-0.99,0.896-2.228,1.494-3.713l6.065-15.078
		c0.697-1.732,1.286-3.194,1.764-4.382c0.478-1.188,0.886-2.204,1.225-3.045c0.34-0.842,0.615-1.565,0.83-2.168
		c0.213-0.604,0.415-1.215,0.606-1.829c0.317-1.08,0.449-2.048,0.393-2.905c-0.059-0.856-0.24-1.548-0.545-2.075
		c-0.307-0.525-0.779-0.96-1.416-1.304c-0.639-0.343-1.379-0.684-2.22-1.021l-0.254-0.44l0.304-1.397l0.268-0.237
		c0.347,0.139,0.846,0.364,1.497,0.675c0.65,0.311,1.314,0.624,1.991,0.944c0.676,0.319,1.34,0.634,1.99,0.945
		c0.652,0.31,1.15,0.534,1.497,0.673l2.599,1.046c0.395,0.159,0.951,0.382,1.67,0.671c0.716,0.289,1.328,0.449,1.833,0.479
		l0.281,0.372c-0.081,0.772-0.057,1.889,0.075,3.35c0.13,1.461,0.33,3.108,0.6,4.94c0.268,1.833,0.571,3.795,0.909,5.885
		c0.336,2.091,0.697,4.162,1.079,6.212c1.331,7.55,2.628,13.792,3.892,18.726c1.262,4.935,2.061,8.13,2.395,9.586
		c0.14-0.345,0.281-0.663,0.426-0.95c0.145-0.287,0.296-0.628,0.456-1.025c0.158-0.397,0.358-0.892,0.597-1.487
		c0.24-0.594,0.56-1.387,0.958-2.377l6.066-15.08c0.697-1.732,1.285-3.193,1.764-4.382c0.479-1.188,0.874-2.209,1.188-3.061
		c0.313-0.853,0.578-1.58,0.792-2.184s0.416-1.214,0.606-1.829c0.458-1.427,0.623-2.481,0.497-3.166
		c-0.127-0.685-0.319-1.279-0.576-1.785c-0.305-0.526-0.803-0.971-1.489-1.333c-0.688-0.363-1.427-0.705-2.219-1.022l-0.18-0.411
		l0.304-1.396l0.268-0.237c0.346,0.139,0.833,0.359,1.459,0.66s1.266,0.605,1.917,0.914c0.651,0.311,1.291,0.615,1.918,0.916
		c0.625,0.3,1.113,0.519,1.459,0.658l3.488,1.404c0.347,0.139,0.841,0.338,1.484,0.597c0.644,0.258,1.32,0.503,2.034,0.732
		c0.711,0.23,1.399,0.449,2.063,0.658c0.662,0.209,1.178,0.359,1.544,0.448L544.792,111.244z"/>
</g>
</svg>
