<?xml version="1.0" encoding="utf-8"?>
<!-- Generator: Adobe Illustrator 14.0.0, SVG Export Plug-In . SVG Version: 6.00 Build 43363)  -->
<!DOCTYPE svg PUBLIC "-//W3C//DTD SVG 1.1//EN" "http://www.w3.org/Graphics/SVG/1.1/DTD/svg11.dtd">
<svg version="1.1" id="Layer_1" xmlns="http://www.w3.org/2000/svg" xmlns:xlink="http://www.w3.org/1999/xlink" x="0px" y="0px"
	 width="800px" height="800px" viewBox="0 0 800 800" enable-background="new 0 0 800 800" xml:space="preserve">
<g>
	<path fill="#E5E3E3" d="M298.079,281.198v26.024c0,20.86,3.133,33.187,9.399,36.987c6.267,3.801,17.208,5.701,32.819,5.701V244.648
		c-16.049,0-27.098,2.34-33.148,7.019C301.104,256.344,298.079,266.19,298.079,281.198z"/>
	<path fill="#E5E3E3" d="M0,0v400h211.483c9.164-3.969,20.503-7.444,34.04-10.422c-30.344-2.531-50.68-10.135-61.018-22.807
		c-10.333-12.67-15.501-37.428-15.501-74.27c0-40.351,7.312-69.737,21.933-88.157c14.626-18.422,33.535-29.87,56.73-34.357
		c23.202-4.482,67.563-6.725,133.084-6.725h98.287l16.799,0.363c29.26,0,54.199,4.962,74.807,14.883
		c20.607,9.924,34.258,22.42,40.949,37.487c6.691,15.072,10.035,40.673,10.035,76.8v17.971H516.98v-33.696
		c0-15.724-1.338-25.737-4.014-30.045c-2.678-4.304-7.141-6.459-13.385-6.459c-6.781,0-11.91,2.905-15.389,8.714
		c-3.107,5.188-4.822,12.769-5.156,22.734v8.104c0.354,12.983,2.281,22.944,5.805,29.855c3.734,7.683,14.348,16.95,31.842,27.796
		c38.657,24.072,66.273,44.814,82.874,62.23H800V0H0z"/>
</g>
<g>
	<path fill="#D6D6D6" d="M501.837,560.795c7.495,0,13.068-3.09,16.729-9.268c3.655-6.178,5.486-15.348,5.486-27.52
		c0-26.768-3.479-44.27-10.438-52.508c-5.435-6.27-16.935-15.75-34.463-28.42v22.24l-0.124,49.934v7.729
		c0,17.039,4.209,25.645,7.153,30.512C489.124,558.363,494.344,560.795,501.837,560.795z"/>
	<path fill="#D6D6D6" d="M599.558,400c4.938,5.182,8.913,10.072,11.9,14.664c13.023,20.035,19.538,52.328,19.538,96.879
		c0,32.389-3.614,56.258-10.84,71.604c-7.227,15.354-21.189,28.221-41.887,38.613c-20.699,10.391-44.939,14.977-72.415,14.977
		l-26.817-0.084H340.183V423.203c-19.131,0-30.948,3.023-35.457,9.063c-4.505,6.047-6.761,21.738-6.761,47.078v157.309H169.003
		V511.799c0-38.203,1.154-61.551,3.462-70.029c2.31-8.48,8.195-17.785,17.646-27.924c4.799-5.143,11.93-9.757,21.372-13.846H0v400
		h800V400H599.558z"/>
</g>
</svg>
