<?xml version="1.0" encoding="utf-8"?>
<!-- Generator: Adobe Illustrator 14.0.0, SVG Export Plug-In . SVG Version: 6.00 Build 43363)  -->
<!DOCTYPE svg PUBLIC "-//W3C//DTD SVG 1.1//EN" "http://www.w3.org/Graphics/SVG/1.1/DTD/svg11.dtd">
<svg version="1.1" id="Layer_1" xmlns="http://www.w3.org/2000/svg" xmlns:xlink="http://www.w3.org/1999/xlink" x="0px" y="0px"
	 width="358.877px" height="51.809px" viewBox="0 0 358.877 51.809" enable-background="new 0 0 358.877 51.809"
	 xml:space="preserve">
<g opacity="0.5">
	<path fill="#FFFFFF" d="M63.667,5.918h7.275c4.85,0,8.134,0.188,9.851,0.563c1.717,0.375,3.117,1.331,4.199,2.869
		s1.624,3.991,1.624,7.36c0,3.076-0.383,5.145-1.147,6.201c-0.765,1.058-2.271,1.693-4.517,1.904
		c2.034,0.505,3.401,1.18,4.102,2.025c0.7,0.848,1.135,1.624,1.306,2.332s0.256,2.657,0.256,5.848v10.425H77.07V32.31
		c0-2.116-0.167-3.427-0.5-3.932c-0.334-0.504-1.208-0.757-2.625-0.757v17.822H63.667V5.918z M73.946,12.681v8.788
		c1.155,0,1.965-0.158,2.429-0.476s0.696-1.347,0.696-3.088v-2.173c0-1.253-0.224-2.075-0.671-2.466
		C75.952,12.876,75.134,12.681,73.946,12.681z"/>
	<path fill="#FFFFFF" d="M112.496,5.918L105,31.138v14.307h-9.521V31.138L88.252,5.918h9.442c1.476,7.715,2.308,12.907,2.497,15.576
		c0.569-4.217,1.523-9.409,2.863-15.576H112.496z"/>
	<path fill="#FFFFFF" d="M129.531,5.918l5.877,39.526h-10.504l-0.551-7.104h-3.678l-0.617,7.104h-10.627l5.244-39.526H129.531
		L129.531,5.918z M124.083,31.333c-0.521-4.477-1.043-10.011-1.566-16.602c-1.047,7.568-1.704,13.103-1.973,16.602H124.083z"/>
	<path fill="#FFFFFF" d="M160.103,5.918v39.526h-9.01l-5.346-17.969v17.969h-8.594V5.918h8.594l5.762,17.798V5.918H160.103z"/>
	<path fill="#FFFFFF" d="M194.819,17.881h-9.547v-2.93c0-1.367-0.121-2.238-0.364-2.612c-0.244-0.374-0.652-0.562-1.222-0.562
		c-0.619,0-1.086,0.252-1.403,0.758c-0.316,0.505-0.478,1.271-0.478,2.296c0,1.319,0.178,2.313,0.535,2.98
		c0.342,0.668,1.309,1.474,2.904,2.417c4.576,2.716,7.457,4.943,8.646,6.686c1.188,1.742,1.78,4.549,1.78,8.423
		c0,2.816-0.327,4.892-0.987,6.227c-0.658,1.335-1.935,2.454-3.82,3.356c-1.889,0.903-4.086,1.355-6.592,1.355
		c-2.752,0-5.101-0.521-7.043-1.563c-1.945-1.042-3.221-2.368-3.822-3.979c-0.601-1.611-0.902-3.898-0.902-6.86v-2.588h9.545v4.81
		c0,1.481,0.135,2.435,0.404,2.856c0.268,0.423,0.744,0.635,1.428,0.635s1.191-0.269,1.525-0.806s0.5-1.334,0.5-2.393
		c0-2.327-0.316-3.85-0.951-4.565c-0.652-0.716-2.256-1.912-4.811-3.589c-2.556-1.692-4.249-2.921-5.079-3.688
		c-0.83-0.765-1.518-1.822-2.063-3.174c-0.545-1.351-0.818-3.076-0.818-5.176c0-3.027,0.387-5.241,1.16-6.641
		c0.773-1.399,2.021-2.494,3.748-3.284c1.725-0.789,3.81-1.185,6.25-1.185c2.669,0,4.943,0.433,6.824,1.294
		c1.879,0.863,3.125,1.949,3.733,3.26c0.611,1.311,0.916,3.535,0.916,6.677v1.563H194.819z"/>
	<path fill="#FFFFFF" d="M222.896,23.13h-10.276v-6.87c0-1.996-0.109-3.243-0.33-3.738c-0.22-0.495-0.705-0.743-1.453-0.743
		c-0.846,0-1.383,0.301-1.61,0.903c-0.229,0.603-0.343,1.903-0.343,3.905v18.359c0,1.921,0.113,3.174,0.343,3.76
		c0.229,0.586,0.739,0.879,1.539,0.879c0.764,0,1.266-0.293,1.502-0.881c0.233-0.587,0.354-1.966,0.354-4.136V29.6h10.277v1.541
		c0,4.091-0.289,6.992-0.865,8.703c-0.578,1.713-1.855,3.212-3.834,4.5c-1.977,1.287-4.416,1.932-7.313,1.932
		c-3.012,0-5.491-0.545-7.444-1.636c-1.953-1.092-3.248-2.601-3.883-4.529c-0.636-1.929-0.951-4.83-0.951-8.704V19.858
		c0-2.849,0.098-4.984,0.293-6.409c0.194-1.424,0.776-2.795,1.746-4.114c0.967-1.317,2.311-2.355,4.026-3.112
		c1.716-0.758,3.688-1.136,5.92-1.136c3.027,0,5.525,0.585,7.496,1.755c1.97,1.171,3.263,2.63,3.881,4.377
		c0.619,1.747,0.929,4.466,0.929,8.155v3.756H222.896z"/>
	<path fill="#FFFFFF" d="M250.216,5.918v39.526h-10.279V28.843h-3.076v16.603h-10.276V5.918h10.276v14.137h3.076V5.918H250.216z"/>
	<path fill="#FFFFFF" d="M286.054,5.918v39.526h-8.984l-0.012-26.686l-3.576,26.686h-6.373l-3.771-26.074l-0.012,26.074h-8.984
		V5.918h13.3c0.395,2.376,0.801,5.177,1.221,8.403l1.459,10.054l2.361-18.457H286.054L286.054,5.918z"/>
	<path fill="#FFFFFF" d="M300.458,5.918v39.526h-10.277V5.918H300.458z"/>
	<path fill="#FFFFFF" d="M304.585,5.918h7.689c4.965,0,8.322,0.229,10.072,0.685c1.747,0.456,3.077,1.205,3.989,2.246
		c0.912,1.042,1.479,2.201,1.709,3.479c0.229,1.278,0.343,3.789,0.343,7.532v13.843c0,3.548-0.166,5.92-0.5,7.117
		c-0.335,1.197-0.916,2.132-1.746,2.808s-1.855,1.147-3.076,1.416c-1.221,0.27-3.062,0.403-5.519,0.403h-12.963L304.585,5.918
		L304.585,5.918z M314.862,12.681v26.001c1.48,0,2.394-0.298,2.734-0.892c0.342-0.594,0.514-2.209,0.514-4.846V17.588
		c0-1.79-0.059-2.938-0.172-3.441c-0.112-0.504-0.375-0.875-0.78-1.111C316.751,12.799,315.985,12.681,314.862,12.681z"/>
	<path fill="#FFFFFF" d="M352.925,5.918v7.91h-6.104v31.616h-10.279V13.828h-6.078v-7.91H352.925z"/>
</g>
<path fill="#FFFFFF" d="M45.105,26.535c-0.255-0.392-0.594-0.809-1.016-1.251l0,0l0,0c-1.416-1.486-3.772-3.255-7.07-5.309
	c-1.492-0.926-2.398-1.716-2.716-2.371c-0.3-0.589-0.465-1.439-0.495-2.547v-0.691c0.028-0.851,0.175-1.498,0.44-1.94
	c0.297-0.494,0.734-0.742,1.313-0.742c0.533,0,0.914,0.184,1.142,0.551c0.228,0.368,0.342,1.222,0.342,2.563v2.874h8.927v-1.532
	c0-3.082-0.285-5.267-0.856-6.553c-0.57-1.285-1.735-2.351-3.493-3.197c-1.758-0.848-3.886-1.271-6.382-1.271l-1.433-0.031h-8.385
	c-5.589,0-9.374,0.191-11.353,0.574S10.478,7.02,9.231,8.592C7.983,10.163,7.36,12.67,7.36,16.112c0,3.143,0.441,5.255,1.322,6.336
	c0.882,1.081,2.617,1.729,5.206,1.945c-1.155,0.254-2.123,0.551-2.904,0.889c-0.805,0.349-1.414,0.743-1.823,1.182
	c-0.806,0.865-1.308,1.658-1.505,2.383C7.458,29.57,7.36,31.562,7.36,34.821v10.651h11.001v-13.42c0-2.161,0.192-3.5,0.577-4.016
	c0.385-0.516,1.393-0.772,3.025-0.772v18.209h11.845l2.288,0.007c2.344,0,4.412-0.393,6.178-1.277
	c1.766-0.887,2.957-1.985,3.574-3.294c0.616-1.309,0.924-3.345,0.924-6.108C46.772,30.999,46.216,28.244,45.105,26.535z
	 M22.058,19.905c-1.332,0-2.265-0.162-2.8-0.486c-0.535-0.325-0.802-1.376-0.802-3.154v-2.221c0-1.279,0.258-2.12,0.774-2.519
	c0.516-0.399,1.458-0.6,2.828-0.6V19.905z M37.266,37.104c-0.313,0.526-0.788,0.791-1.427,0.791c-0.639,0-1.084-0.208-1.336-0.623
	c-0.251-0.415-0.61-1.149-0.61-2.604v-0.66l0.011-4.259v-1.896c1.495,1.081,2.476,1.889,2.939,2.424
	c0.594,0.703,0.891,2.196,0.891,4.479C37.733,35.795,37.577,36.577,37.266,37.104z"/>
</svg>
